<svg class="icon" viewBox="0 0 1024 1024" xmlns="http://www.w3.org/2000/svg" width="200" height="200"><path d="M837 208.3c-106.9-4.1-184.8-32.4-231.3-55.4-50-24.7-75.5-48.8-76.2-49.5-9.7-9.4-25.1-9.5-34.8 0-.3.2-25.8 24.6-76.2 49.5-46.5 23-124.4 51.3-231.3 55.4-13.4.5-24 11.5-24 25v335.9c0 1 .1 2 .2 3 .3 2.3 7.5 58.1 50.6 128.9 25 41.1 57 79.1 95.3 113 47.4 42.1 104.5 78 169.7 106.6 10.5 4.6 21.6 6.9 33.2 6.9s22.7-2.3 33.2-6.9c65.2-28.7 122.3-64.5 169.7-106.6 38.2-33.9 70.3-72 95.3-113 43.1-70.8 50.4-126.6 50.6-128.9.1-1 .2-2 .2-3V233.3c-.2-13.5-10.8-24.5-24.2-25zm-26 359c-1.3 8.1-10.1 53.7-45 110.2-22.5 36.4-51.4 70.2-85.8 100.5-43.2 38.1-95.4 70.8-155.2 97-4.1 1.8-8.5 2.7-13 2.7s-9-.9-13-2.7c-59.7-26.3-111.9-58.9-155.2-96.9-34.4-30.3-63.3-64.1-85.8-100.5-35-56.6-43.7-102.3-45-110.2V256.9c104.8-7.5 182.3-36.5 229.9-60.4 31.8-15.9 54.8-31.7 69.1-42.6 14.3 11 37.3 26.7 69.1 42.6 47.7 23.9 125.1 52.9 229.9 60.4v310.4z"/><path d="M403.6 525.1v84.6h-18.5c-13.8 0-25 11.2-25 25s11.2 25 25 25h253.7c13.8 0 25-11.2 25-25s-11.2-25-25-25h-18.5v-84.6c0-59.8-48.6-108.4-108.4-108.4s-108.3 48.7-108.3 108.4zm166.8 0v84.6H453.6v-84.6c0-32.2 26.2-58.4 58.4-58.4s58.4 26.2 58.4 58.4zM512 366.7c13.8 0 25-11.2 25-25v-76.2c0-13.8-11.2-25-25-25s-25 11.2-25 25v76.2c0 13.8 11.2 25 25 25zm128.8 62.2c5.9 0 11.8-2.1 16.6-6.3l57-50.6c10.3-9.2 11.2-25 2.1-35.3-9.2-10.3-25-11.2-35.3-2.1l-57 50.6c-10.3 9.2-11.2 25-2.1 35.3 4.9 5.6 11.8 8.4 18.7 8.4zm-257.6 0c6.9 0 13.8-2.8 18.7-8.4 9.2-10.3 8.2-26.1-2.1-35.3l-57-50.6c-10.3-9.2-26.1-8.2-35.3 2.1-9.2 10.3-8.2 26.1 2.1 35.3l57 50.6c4.8 4.2 10.7 6.3 16.6 6.3z"/></svg>