<svg class="icon" viewBox="0 0 1024 1024" xmlns="http://www.w3.org/2000/svg" width="200" height="200"><defs><style>@font-face{font-family:feedback-iconfont;src:url(//at.alicdn.com/t/font_1031158_u69w8yhxdu.woff2?t=1630033759944) format(&quot;woff2&quot;),url(//at.alicdn.com/t/font_1031158_u69w8yhxdu.woff?t=1630033759944) format(&quot;woff&quot;),url(//at.alicdn.com/t/font_1031158_u69w8yhxdu.ttf?t=1630033759944) format(&quot;truetype&quot;)}</style></defs><path d="M944.64 1021.44H104.96c-14.336 0-25.6-11.264-25.6-25.6V38.4c0-14.336 11.264-25.6 25.6-25.6h839.68c14.336 0 25.6 11.264 25.6 25.6v957.44c0 14.336-11.264 25.6-25.6 25.6zm-814.08-51.2h788.48V64H130.56v906.24z"/><path d="M944.64 355.84H104.96c-14.336 0-25.6-11.264-25.6-25.6V38.4c0-14.336 11.264-25.6 25.6-25.6h839.68c14.336 0 25.6 11.264 25.6 25.6v291.84c0 14.336-11.264 25.6-25.6 25.6zm-814.08-51.2h788.48V64H130.56v240.64z"/><path d="M499.2 199.68h51.2V486.4h-51.2z"/><path d="M464.896 168.96a57.856 57.856 0 1 0 115.712 0 57.856 57.856 0 1 0-115.712 0Z"/><path d="M522.752 252.416c-46.08 0-83.456-37.376-83.456-83.456s37.376-83.456 83.456-83.456 83.456 37.376 83.456 83.456-37.376 83.456-83.456 83.456zm0-115.712c-17.92 0-32.256 14.336-32.256 32.256s14.336 32.256 32.256 32.256 32.256-14.336 32.256-32.256-14.336-32.256-32.256-32.256zm-57.856 336.384a57.856 57.856 0 1 0 115.712 0 57.856 57.856 0 1 0-115.712 0Z"/><path d="M522.752 556.544c-46.08 0-83.456-37.376-83.456-83.456s37.376-83.456 83.456-83.456 83.456 37.376 83.456 83.456-37.376 83.456-83.456 83.456zm0-115.712c-17.92 0-32.256 14.336-32.256 32.256s14.336 32.256 32.256 32.256 32.256-14.336 32.256-32.256-14.336-32.256-32.256-32.256z"/></svg>