<svg t="1655453489145" class="icon" viewBox="0 0 1024 1024" version="1.1" xmlns="http://www.w3.org/2000/svg" p-id="1904" width="200" height="200"><path d="M960 928h-192a32 32 0 0 1-32-32V320a32 32 0 0 1 32-32h192a32 32 0 0 1 32 32v576a32 32 0 0 1-32 32z m-32-576h-128v512h128V352zM608 928h-192a32 32 0 0 1-32-32V128a32 32 0 0 1 32-32h192a32 32 0 0 1 32 32v768a32 32 0 0 1-32 32zM576 160h-128v704h128V160zM256 928H64a32 32 0 0 1-32-32V480a32 32 0 0 1 32-32h192a32 32 0 0 1 32 32v416a32 32 0 0 1-32 32zM224 512H96v352h128V512z" p-id="1905" fill="#ffffff"></path></svg>