<svg class="icon" viewBox="0 0 1024 1024" xmlns="http://www.w3.org/2000/svg" width="200" height="200"><path d="M907.712 642.592 905.088 340 700.832 485.056l206.88 157.536zm-39.68-354.784a64 64 0 0 1 101.056 51.648l2.624 302.592a64 64 0 0 1-102.752 51.456L662.048 535.968a64 64 0 0 1 1.728-103.104l204.256-145.056z"/><path d="M144 256a32 32 0 0 0-32 32v417.376a32 32 0 0 0 32 32h456.32a32 32 0 0 0 32-32V288a32 32 0 0 0-32-32H144zm0-64h456.32a96 96 0 0 1 96 96v417.376a96 96 0 0 1-96 96H144a96 96 0 0 1-96-96V288a96 96 0 0 1 96-96z"/></svg>