<svg class="icon" viewBox="0 0 1024 1024" xmlns="http://www.w3.org/2000/svg" width="200" height="200"><path d="M956.624 922.846h-29.442V592.833c0-17.702-8.851-41.546-29.985-50.397l-267.335-174.85V93.747l-2.89-6.142c-12.102-29.804-38.655-44.796-71.35-38.835L136.378 173.587c-23.844 8.85-41.545 32.694-41.545 59.428v689.831H64.847c-18.244 0-29.985 14.993-29.985 29.985 0 18.244 12.102 29.985 29.985 29.985h891.777c18.244 0 29.985-12.102 29.985-29.985-.18-18.244-12.283-29.985-29.985-29.985zm-89.232-333.265v333.265h-237.53V435.683l237.53 153.898zM153.537 233.015 569.53 108.198v814.648H153.537V233.015z"/><path d="M450.856 325.137H272.754c-18.244 0-29.985 11.74-29.985 29.985 0 18.243 12.102 29.984 29.985 29.984h178.102c18.244 0 29.985-11.74 29.985-29.984 0-18.425-12.283-29.985-29.985-29.985zm0 177.922H272.754c-18.244 0-29.985 12.102-29.985 29.985v.36c0 18.245 12.102 29.986 29.985 29.986h178.102c18.244 0 29.985-12.103 29.985-29.985v-.361c0-18.244-12.283-29.985-29.985-29.985zm0 178.644H272.754c-18.244 0-29.985 11.741-29.985 29.985v.361c0 18.244 12.102 29.985 29.985 29.985h178.102c18.244 0 29.985-11.74 29.985-29.985v-.36c0-18.245-12.283-29.986-29.985-29.986zm237.892 30.346c0 18.244 12.102 29.985 29.985 29.985h59.428c18.243 0 29.984-11.74 29.984-29.985v-.36c0-18.245-12.102-29.986-29.984-29.986h-59.428c-18.244 0-29.985 11.741-29.985 29.985v.361z"/></svg>