<svg class="icon" viewBox="0 0 1024 1024" xmlns="http://www.w3.org/2000/svg" width="200" height="200"><defs><style>@font-face{font-family:feedback-iconfont;src:url(//at.alicdn.com/t/font_1031158_u69w8yhxdu.woff2?t=1630033759944) format(&quot;woff2&quot;),url(//at.alicdn.com/t/font_1031158_u69w8yhxdu.woff?t=1630033759944) format(&quot;woff&quot;),url(//at.alicdn.com/t/font_1031158_u69w8yhxdu.ttf?t=1630033759944) format(&quot;truetype&quot;)}</style></defs><path d="m951 799.49-383.89-651a64 64 0 0 0-110.26 0L73 799.49C47.83 842.16 78.59 896 128.12 896h767.77c49.52 0 80.28-53.84 55.11-96.51zM128.12 832l383.62-651a1 1 0 0 1 .26 0l383.89 651z"/><path d="m470 393.88 8.59 244.51a33.18 33.18 0 0 0 66.31.06L554 394a42 42 0 1 0-84-.08zm2 364.52a40 40 0 1 0 80 0 40 40 0 1 0-80 0Z"/></svg>