<svg class="icon" viewBox="0 0 1120 1024" xmlns="http://www.w3.org/2000/svg" width="218.75" height="200"><path d="M1081.373 410.81c24.82-14.68 39.22-37.484 39.22-62.642s-14.231-47.961-39.22-62.64L625.57 16.584c-37.26-22.076-93.29-22.076-130.717-.056L39.221 285.527C14.23 300.207 0 323.011 0 348.168s14.232 47.962 39.22 62.642l121.921 72.054 1.345 365.985A118.839 118.839 0 0 0 233.7 957.435a799.095 799.095 0 0 0 320.994 66.563 778.812 778.812 0 0 0 343.181-79.394 95.25 95.25 0 0 0 53.004-84.044l2.914-374.11zM538.333 90.208a53.172 53.172 0 0 1 43.927 0l437.032 257.736L582.26 605.681a53.172 53.172 0 0 1-43.927 0L233.42 426.16a42.75 42.75 0 0 0-16.81-10.029l-115.364-67.964zM865.21 859.663a8.853 8.853 0 0 1-4.818 8.012 684.907 684.907 0 0 1-305.698 70.766 713.594 713.594 0 0 1-286.816-59.448 33.282 33.282 0 0 1-19.667-30.48l-1.288-315.055 247.931 146.63a137.833 137.833 0 0 0 130.885 0l241.992-142.82z"/><path d="M1076.442 453.672a42.75 42.75 0 0 0-42.75 42.75v370.75a42.807 42.807 0 0 0 85.557 0v-370.75a42.807 42.807 0 0 0-42.807-42.75z"/></svg>