<svg class="icon" viewBox="0 0 1024 1024" xmlns="http://www.w3.org/2000/svg" width="200" height="200"><path d="M870.353 363.776v-229.58a664.064 664.064 0 0 1-160.074-30.088A608.4 608.4 0 0 1 509.285 0a608.4 608.4 0 0 1-200.994 103.506 664.064 664.064 0 0 1-160.074 30.69V631.87a249.137 249.137 0 0 0 63.789 167.896q19.858 21.965 41.523 43.329c20.46 20.46 41.221 39.416 61.983 57.47l26.177 21.964a925.838 925.838 0 0 0 135.702 93.276 64.992 64.992 0 0 0 63.187 0 925.838 925.838 0 0 0 135.7-93.276l26.178-21.964c20.762-18.054 41.523-37.01 61.984-57.47q21.664-21.665 41.522-43.329a249.137 249.137 0 0 0 64.39-167.896zm-108.32 394.166c-12.939 14.142-26.178 27.982-39.718 41.222-18.354 18.354-37.912 36.106-60.178 54.762l-24.974 20.761a862.651 862.651 0 0 1-125.17 88.16h-5.416a862.651 862.651 0 0 1-126.675-87.257l-24.974-20.762c-21.363-18.354-40.62-36.407-60.178-54.762-13.54-13.54-26.779-27.38-39.717-41.222a187.755 187.755 0 0 1-46.638-126.975V188.357a769.676 769.676 0 0 0 117.949-27.38 722.136 722.136 0 0 0 182.941-86.055 722.136 722.136 0 0 0 182.941 85.753 769.676 769.676 0 0 0 117.949 27.682V631.87a187.755 187.755 0 0 1-48.142 126.073z"/><path d="M656.721 220.251 509.285 367.387 361.849 220.25l-42.426 42.426 118.852 119.152H328.751v60.178h150.445v79.435H328.45v60.178h150.746v221.154h60.178V581.62h150.144v-60.178H539.374v-79.435h150.445V381.83H580.295l118.852-119.152-42.426-42.426z"/></svg>