<svg class="icon" viewBox="0 0 1024 1024" xmlns="http://www.w3.org/2000/svg" width="200" height="200"><path d="M750.933 512c35.328 0 48.18 28.28 48.18 29.764l218.453 361.762c1.604 1.485 6.434 10.411 6.434 28.28 0 31.266-24.098 58.06-54.613 58.06H532.48c-30.515 0-54.613-25.31-54.613-58.06 0-17.852 6.434-28.28 6.434-28.28L702.754 540.28c0-1.484 14.439-28.279 48.18-28.279zM204.681 34.133V102.4H102.4c-20.31 0-34.133 13.449-34.133 35.02v698.932c0 21.555 13.721 34.185 34.133 34.048h238.933c22.716 5.308 34.082 16.896 34.082 34.816 0 17.886-11.366 29.03-34.082 33.45H93.355C42.103 938.667 0 895.523 0 841.9V128c0-53.623 42.12-93.867 93.867-93.867H204.68zm546.952 546.134c-8.346 0-13.875 9.164-13.875 9.164l-1.4 2.629-188.842 318.464c0 2.628-1.383 3.925-1.383 6.553 0 10.496 8.329 21.59 16.657 21.59h377.686c8.328 0 15.257-11.094 15.257-20.276 0-3.925 0-5.239-1.382-6.553l-188.843-322.39v-1.314s0-1.314-1.365-1.314c-1.4-2.628-4.181-6.553-12.51-6.553zm-.7 273.066c17.972 0 34.134 16.248 34.134 34.134 0 19.507-16.162 34.133-34.134 34.133S716.8 905.353 716.8 887.467c0-19.508 14.37-34.134 34.133-34.134zm0-187.733c17.972 0 34.134 11.913 34.134 25.003l-14.37 114.295c0 8.346-7.168 14.302-19.764 14.302-12.578 0-19.763-5.973-19.763-14.302L716.8 690.603c0-14.285 14.37-25.003 34.133-25.003zm-290.082-34.133c17.016 0 33.69 16.725 33.69 34.116 0 17.374-16.674 34.15-33.69 34.15h-222.31c-16.555 0-33.741-17.237-33.741-34.15 0-17.562 16.896-34.116 33.74-34.116zm85.282-187.734c16.657 0 34.134 17.289 34.134 34.134 0 16.844-17.374 34.133-34.134 34.133H239.36c-17.63 0-34.56-17.374-34.56-34.15 0-17.084 17.186-34.117 34.56-34.117zM844.8 34.133c35.004 0 93.986 43.298 93.867 96.427v296.107c-7.749 23.023-18.944 34.526-33.553 34.526-14.627 0-26.198-11.503-34.714-34.526V136.533c0-20.992-12.22-34.133-34.133-34.133h-102.4V34.133zM716.8 256c17.067 0 34.167 16.282 34.167 34.133s-17.271 34.134-34.167 34.134H239.104c-16.964 0-34.304-17.118-34.304-36.591 0-15.36 16.691-31.676 34.304-31.676zM595.73 17.067c19.967 0 35.737 18.602 35.737 40.926v20.599c0 22.87-16.248 40.875-35.738 40.875H342.938c-19.712 0-35.704-18.296-35.738-40.875v-20.6c0-22.869 16.247-40.925 35.738-40.925h252.791z"/></svg>