<svg class="icon" viewBox="0 0 1024 1024" xmlns="http://www.w3.org/2000/svg" width="200" height="200"><path d="M1018.697 902.583 545.463 82.834a38.583 38.583 0 0 0-66.926 0L5.303 902.583a38.583 38.583 0 0 0 33.28 57.966h946.834a38.583 38.583 0 0 0 33.28-57.966zM486.4 361.326h51.2a25.234 25.234 0 0 1 25.051 27.428L536.87 658.286a25.051 25.051 0 0 1-49.92 0l-25.6-268.8a25.051 25.051 0 0 1 25.051-28.16zm78.811 436.48a19.2 19.2 0 0 1-19.382 18.285H478.17a19.2 19.2 0 0 1-19.382-18.285v-52.48a19.2 19.2 0 0 1 19.382-19.383h67.658a19.2 19.2 0 0 1 19.382 19.383z"/></svg>