<svg width="1024" height="1024" xmlns="http://www.w3.org/2000/svg" class="icon"><path d="M623.602 665.598a62.464 62.464 0 0 0 122.88 0l40.96-563.198A102.615 102.615 0 0 0 685.042 0a105.256 105.256 0 0 0-102.4 112.64l40.96 552.958zm61.44 153.6a102.4 102.4 0 1 0 102.4 102.4 96.74 96.74 0 0 0-102.4-102.4zm-423.44-153.6a62.464 62.464 0 0 0 122.88 0l40.96-563.198A102.615 102.615 0 0 0 323.042 0a105.256 105.256 0 0 0-102.4 112.64l40.96 552.958zm61.44 153.6a102.4 102.4 0 1 0 102.4 102.4 96.74 96.74 0 0 0-102.4-102.4z"/></svg>