<svg width="43" height="43" fill="none" xmlns="http://www.w3.org/2000/svg"><g clip-path="url(#a)" fill="#18DBFD"><path d="M35.721 35.207a19.378 19.378 0 0 1-13.784 5.74H21.9A19.374 19.374 0 0 1 8.132 35.26c-3.505-3.49-5.498-8.083-5.701-12.998l-1.439.024a.308.308 0 0 1-.223-.524l2.616-2.62a.308.308 0 0 1 .425-.01l2.768 2.527a.308.308 0 0 1-.201.535l-1.511.026c.412 9.053 7.887 16.292 17.034 16.292h.033c9.414-.018 17.059-7.692 17.04-17.105-.018-9.402-7.674-17.04-17.072-17.04h-.035a17.091 17.091 0 0 0-14.941 8.866 1.216 1.216 0 0 1-1.654.48 1.217 1.217 0 0 1-.48-1.653A19.525 19.525 0 0 1 21.86 1.932h.04a19.379 19.379 0 0 1 13.767 5.687 19.382 19.382 0 0 1 5.741 13.783 19.382 19.382 0 0 1-5.688 13.805Z"/><path d="M31.127 18.977h-3.76a.94.94 0 0 0-.854.51l-3.418 5.775-3.247-10.532c-.171-.51-.684-.85-1.367-.68-.171.17-.513.34-.684.51l-3.418 6.795h-3.418c-.513 0-1.025.34-1.025 1.019 0 .68.512 1.019 1.025 1.019h4.102c.341 0 .683-.17 1.025-.51l2.564-4.926 2.905 10.192c.17.51.684.85 1.367.68.342 0 .513-.17.684-.51l4.443-7.474h3.076c.513 0 1.026-.51 1.026-1.02 0-.509-.513-.848-1.026-.848Z"/></g><clipPath id="a"><path fill="#fff" transform="translate(.181 .738)" d="M0 0h42v42H0z"/></clipPath></svg>