<svg width="43" height="43" fill="none" xmlns="http://www.w3.org/2000/svg"><g clip-path="url(#a)"><path d="M35.721 35.267a19.378 19.378 0 0 1-13.784 5.74H21.9a19.374 19.374 0 0 1-13.767-5.688c-3.505-3.49-5.498-8.083-5.701-12.998l-1.439.025a.308.308 0 0 1-.223-.525l2.616-2.62a.308.308 0 0 1 .425-.01l2.768 2.528a.308.308 0 0 1-.201.534l-1.511.026C5.278 31.333 12.753 38.57 21.9 38.57h.033c9.414-.018 17.059-7.692 17.04-17.105-.018-9.402-7.674-17.04-17.072-17.04h-.035a17.091 17.091 0 0 0-14.941 8.867A1.218 1.218 0 0 1 4.79 12.12 19.525 19.525 0 0 1 21.862 1.99h.04a19.379 19.379 0 0 1 13.766 5.687 19.382 19.382 0 0 1 5.741 13.783 19.382 19.382 0 0 1-5.688 13.806Z" fill="#18DBFD"/><path d="M31.45 26.587h-2.853V23.59c0-.375-.285-.75-.713-.75s-.713.3-.713.75v2.995h-2.854c-.356 0-.713.3-.713.75 0 .449.286.748.713.748h2.854v2.996c0 .374.285.749.713.749s.713-.3.713-.75v-2.995h2.853c.357 0 .713-.3.713-.749s-.285-.748-.713-.748Zm-8.192-4.281c.245 0 .48.024.654-.15.173-.173.27-.258.27-.504 0-.245-.097-.2-.27-.374-.174-.174-.409.108-.654.108h-1.04c-2.043 0-4.296-2.316-4.296-4.36 0-2.042 2.067-4.623 4.11-4.625h1.03c.246 0 .676.3.85.127.173-.174.27.118.27-.127a.925.925 0 0 0-.924-.925h-1.64c-.223 0-.539.042-.78.136-2.332.658-3.744 2.514-3.744 5.056 0 1.77.519 3.702 1.81 4.718-3.015 1.204-5.256 3.938-5.734 7.25a4.468 4.468 0 0 0-.066.554l-.023 1.714a.925.925 0 1 0 1.85 0v-.933a7.401 7.401 0 0 1 7.402-7.393l.925-.271Z" fill="#18DBFD"/><circle cx="22.496" cy="16.876" r="4.957" stroke="#32C5FF" stroke-width="1.5"/></g><clipPath id="a"><path fill="#fff" transform="translate(.181 .797)" d="M0 0h42v42H0z"/></clipPath></svg>