<svg width="43" height="43" fill="none" xmlns="http://www.w3.org/2000/svg"><g clip-path="url(#a)" fill="#18DBFD"><path d="M31.652 27.7c-.69-2.67-2.696-4.84-5.233-5.828a5.443 5.443 0 1 0-6.206 0 8.568 8.568 0 0 0-5.172 5.824c-.129.454-.15.783-.178.976l-.1 1.162v.008a.778.778 0 0 0 1.556 0l.043-.777a6.998 6.998 0 0 1 13.908 0l.044.777a.778.778 0 1 0 1.555 0l-.034-1.3a5.134 5.134 0 0 0-.183-.842Zm-8.336-6.41a3.888 3.888 0 1 1 0-7.776 3.888 3.888 0 0 1 0 7.775Z"/><path d="M36.993 35.057a19.376 19.376 0 0 1-13.784 5.74h-.038A19.378 19.378 0 0 1 9.404 35.11c-3.505-3.49-5.498-8.084-5.701-12.998l-1.439.024a.308.308 0 0 1-.223-.524l2.616-2.621a.309.309 0 0 1 .425-.01L7.85 21.51a.307.307 0 0 1-.201.535l-1.511.025c.412 9.054 7.887 16.293 17.034 16.293h.032c9.415-.018 17.06-7.692 17.04-17.106-.017-9.402-7.673-17.04-17.072-17.04h-.034a17.091 17.091 0 0 0-14.941 8.867 1.218 1.218 0 0 1-2.135-1.173A19.525 19.525 0 0 1 23.134 1.782h.04A19.379 19.379 0 0 1 36.94 7.469a19.38 19.38 0 0 1 5.741 13.783 19.383 19.383 0 0 1-5.688 13.805Z"/></g><clipPath id="a"><path fill="#fff" transform="translate(.681 .587)" d="M0 0h42v42H0z"/></clipPath></svg>