<svg width="43" height="43" fill="none" xmlns="http://www.w3.org/2000/svg"><path d="M36.221 34.968a19.378 19.378 0 0 1-13.784 5.74H22.4a19.374 19.374 0 0 1-13.767-5.687c-3.505-3.49-5.498-8.083-5.701-12.998l-1.439.025a.307.307 0 0 1-.223-.525l2.616-2.62a.308.308 0 0 1 .425-.01l2.768 2.527a.308.308 0 0 1-.201.535l-1.511.026c.412 9.054 7.887 16.292 17.034 16.292h.033c9.414-.018 17.059-7.692 17.04-17.105-.018-9.402-7.674-17.04-17.072-17.04h-.035a17.091 17.091 0 0 0-14.941 8.867A1.218 1.218 0 0 1 5.29 11.82 19.525 19.525 0 0 1 22.362 1.693h.04A19.379 19.379 0 0 1 36.167 7.38a19.382 19.382 0 0 1 5.741 13.783 19.382 19.382 0 0 1-5.688 13.805Z" fill="#18DBFD"/><path d="M32.731 27.104c-.604-2.335-2.357-4.231-4.575-5.095a4.758 4.758 0 1 0-5.426 0 7.49 7.49 0 0 0-4.522 5.091c-.112.397-.13.685-.156.854l-.087 1.015v.013-.005a.68.68 0 1 0 1.36 0l.038-.68a6.118 6.118 0 0 1 12.16 0l.038.68a.68.68 0 1 0 1.36 0l-.03-1.137a4.487 4.487 0 0 0-.16-.736Zm-7.288-5.605a3.399 3.399 0 1 1 0-6.798 3.399 3.399 0 0 1 0 6.798Zm-6.798 1.36a.68.68 0 1 0 0-1.36h-.68a2.72 2.72 0 0 1-.002-5.438h.682a.68.68 0 1 0 0-1.36h-1.204c-.164 0-.396.03-.574.1-1.713.484-2.98 2.111-2.98 3.979 0 1.3.61 2.456 1.559 3.203a6.802 6.802 0 0 0-4.213 5.327c-.024.13-.036.227-.048.407l-.017 1.26a.68.68 0 1 0 1.36 0v-.686a5.438 5.438 0 0 1 5.437-5.433h.68Z" fill="#18DBFD"/></svg>