<svg width="42" height="43" fill="none" xmlns="http://www.w3.org/2000/svg"><path d="M35.54 35.013a19.377 19.377 0 0 1-13.784 5.74h-.039a19.375 19.375 0 0 1-13.766-5.687c-3.505-3.49-5.498-8.084-5.702-12.998l-1.438.024a.308.308 0 0 1-.223-.524l2.616-2.621a.309.309 0 0 1 .425-.01l2.768 2.528a.307.307 0 0 1-.202.535l-1.51.025c.412 9.054 7.887 16.293 17.033 16.293h.033c9.415-.018 17.06-7.692 17.04-17.106-.017-9.402-7.673-17.04-17.072-17.04h-.034A17.092 17.092 0 0 0 6.743 13.04a1.218 1.218 0 0 1-2.134-1.173A19.525 19.525 0 0 1 21.681 1.738h.04a19.379 19.379 0 0 1 13.766 5.687 19.382 19.382 0 0 1 5.74 13.783 19.382 19.382 0 0 1-5.687 13.805Z" fill="#32C5FF"/><path d="M23.258 22.053c.245 0 .48.023.654-.15.173-.174.27-.259.27-.504 0-.246-.097-.202-.27-.375-.174-.174-.409.108-.654.108h-1.04c-2.043 0-4.296-2.315-4.296-4.359 0-2.042 2.067-4.624 4.11-4.626h1.03c.246 0 .676.3.85.127.173-.174.27.119.27-.127a.925.925 0 0 0-.924-.925h-1.64c-.223 0-.539.042-.78.137-2.332.658-3.744 2.514-3.744 5.056 0 1.77.519 3.701 1.81 4.718-3.015 1.204-5.256 3.937-5.734 7.249-.033.176-.048.31-.066.554l-.023 1.714a.925.925 0 1 0 1.85 0v-.933a7.401 7.401 0 0 1 7.402-7.393l.925-.271Z" fill="#32C5FF"/><circle cx="22.496" cy="16.623" r="4.957" stroke="#18DBFD" stroke-width="1.5"/><path d="M28.416 26.08h2.852c.428 0 .714.299.714.748 0 .45-.357.749-.713.749h-7.133c-.428 0-.713-.3-.713-.749 0-.45.357-.749.713-.749h4.28Z" fill="#32C5FF"/></svg>