<svg class="icon" viewBox="0 0 1024 1024" xmlns="http://www.w3.org/2000/svg" width="200" height="200"><path d="M878.24 506.81c-15.49 0-28.04 12.56-28.04 28.04 0 201.02-163.54 364.56-364.56 364.56S121.07 735.87 121.07 534.85s163.54-364.56 364.56-364.56c15.49 0 28.04-12.56 28.04-28.04s-12.56-28.04-28.04-28.04c-231.95 0-420.65 188.7-420.65 420.65S253.69 955.5 485.63 955.5s420.65-188.7 420.65-420.65c0-15.49-12.55-28.04-28.04-28.04z"/><path d="M485.63 268.44c-146.9 0-266.41 119.51-266.41 266.41s119.51 266.41 266.41 266.41 266.41-119.51 266.41-266.41c0-15.49-12.56-28.04-28.04-28.04-15.49 0-28.04 12.56-28.04 28.04 0 115.97-94.34 210.32-210.32 210.32s-210.32-94.35-210.32-210.32 94.34-210.32 210.32-210.32c15.49 0 28.04-12.56 28.04-28.04s-12.56-28.05-28.05-28.05z"/><path d="M485.63 450.72c15.49 0 28.04-12.56 28.04-28.04 0-15.49-12.56-28.04-28.04-28.04-77.31 0-140.22 62.9-140.22 140.22s62.91 140.22 140.22 140.22 140.22-62.9 140.22-140.22c0-15.49-12.56-28.04-28.04-28.04s-28.04 12.56-28.04 28.04c0 46.39-37.74 84.13-84.13 84.13s-84.13-37.74-84.13-84.13c-.01-46.4 37.73-84.14 84.12-84.14z"/><path d="M957.88 257.16a28.033 28.033 0 0 0-20.98-19.49l-115.86-25.08-31.46-123.01a28.02 28.02 0 0 0-19.76-20.09 28.11 28.11 0 0 0-27.24 7.22L576.82 242.48a27.995 27.995 0 0 0-7.98 23.44l16.5 126.8-119.77 122.53c-10.82 11.08-10.61 28.83.47 39.65a27.947 27.947 0 0 0 19.59 7.99c7.28 0 14.56-2.82 20.06-8.44l111.93-114.52 143.95 18.73c1.2.16 2.41.23 3.61.23 7.39 0 14.54-2.92 19.83-8.22L950.8 284.91c7.26-7.26 9.97-17.9 7.08-27.75zM755.13 401.27l-114.05-14.84-14.84-114.05 121.21-121.22 23.57 92.13a28.055 28.055 0 0 0 21.24 20.46l82.53 17.87-119.66 119.65z"/></svg>