<svg width="55" height="55" viewBox="0 0 55 55" fill="none" xmlns="http://www.w3.org/2000/svg">
<circle cx="27.5" cy="27.5" r="27.5" fill="#52C41A"/>
<g clip-path="url(#clip0_120_1819)">
<path d="M24.5282 34.3191C24.4879 34.3191 24.4498 34.3168 24.4096 34.3101C24.132 34.2721 23.8903 34.1087 23.7516 33.867L17.8949 27.6298C17.6487 27.2001 17.7986 26.6541 18.2283 26.4079C18.658 26.1617 19.2041 26.3116 19.4502 26.7413L24.7229 31.9602L34.5654 20.9383C34.9145 20.5892 35.4807 20.587 35.8321 20.9361C36.1812 21.2852 36.1834 21.8514 35.8343 22.2028L25.204 34.0147L25.1615 34.0572C24.9914 34.2273 24.7632 34.3191 24.5282 34.3191Z" fill="white"/>
<mask id="mask0_120_1819" style="mask-type:alpha" maskUnits="userSpaceOnUse" x="17" y="20" width="20" height="15">
<path d="M24.5282 34.3191C24.4879 34.3191 24.4498 34.3168 24.4096 34.3101C24.132 34.2721 23.8903 34.1087 23.7516 33.867L17.8949 27.6298C17.6487 27.2001 17.7986 26.6541 18.2283 26.4079C18.658 26.1617 19.2041 26.3116 19.4502 26.7413L24.7229 31.9602L34.5654 20.9383C34.9145 20.5892 35.4807 20.587 35.8321 20.9361C36.1812 21.2852 36.1834 21.8514 35.8343 22.2028L25.204 34.0147L25.1615 34.0572C24.9914 34.2273 24.7632 34.3191 24.5282 34.3191Z" fill="white"/>
</mask>
<g mask="url(#mask0_120_1819)">
</g>
</g>
<defs>
<clipPath id="clip0_120_1819">
<rect width="19" height="14" fill="white" transform="translate(17.1875 20.625)"/>
</clipPath>
</defs>
</svg>
