<svg class="icon" viewBox="0 0 1024 1024" xmlns="http://www.w3.org/2000/svg" width="200" height="200"><path d="M671.569 656.09a31.998 31.998 0 0 0-11.392-43.837 433.57 433.57 0 0 0-82.938-36.67 307.178 307.178 0 1 0-290.923 4.224A438.689 438.689 0 0 0 0 990.467a31.998 31.998 0 0 0 63.995 0 374.374 374.374 0 0 1 563.8-322.986 31.998 31.998 0 0 0 43.774-11.391zM427.874 552.033a243.183 243.183 0 1 1 243.183-243.182 243.439 243.439 0 0 1-243.183 243.182zm562.456 56.124a118.2 118.2 0 0 0-162.868 0l-45.053 45.053a147.83 147.83 0 0 1 17.343-1.664 146.294 146.294 0 0 1 61.115 13.631l11.84-11.775a51.196 51.196 0 0 1 72.314 72.38l-108.6 108.663a52.668 52.668 0 0 1-72.315 0 50.492 50.492 0 0 1-10.88-16.318l-46.716 46.588a116.088 116.088 0 0 0 12.287 14.975 115.256 115.256 0 0 0 162.869 0L990.33 771.026a115.448 115.448 0 0 0 0-162.869z"/><path d="M800.263 945.286v.064a152.31 152.31 0 0 1-61.82-12.864l-11.07 11.008a52.668 52.668 0 0 1-72.443 0 51.516 51.516 0 0 1 0-72.38l108.664-108.6a50.876 50.876 0 0 1 83.194 16.255l46.653-46.588a113.336 113.336 0 0 0-175.092-14.911l-108.664 108.6a115.192 115.192 0 0 0 162.932 162.868l45.117-45.116a147.254 147.254 0 0 1-17.47 1.728z"/></svg>