<svg width="620" height="319" fill="none" xmlns="http://www.w3.org/2000/svg"><rect x="1.181" y=".683" width="616.367" height="317.008" rx="19.5" fill="#32C5FF" fill-opacity=".1"/><rect x="1.181" y=".683" width="616.367" height="317.008" rx="19.5" stroke="url(#a)" stroke-linejoin="round"/><rect x="1.181" y=".683" width="616.367" height="317.008" rx="19.5" stroke="#fff" stroke-linejoin="round" style="mix-blend-mode:soft-light"/><rect x=".681" y="107.666" width="1.633" height="50.633" rx=".817" fill="#32C5FF"/><rect x="618.048" y="71.246" width="1.633" height="50.633" rx=".817" fill="#32C5FF"/><rect x="2.314" y="258.675" width="1.633" height="20.431" rx=".817" fill="#32C5FF"/><rect x="618.048" y="207.155" width="1.633" height="20.431" rx=".817" fill="#32C5FF"/><path fill-rule="evenodd" clip-rule="evenodd" d="M441.218.187a.439.439 0 0 1 0 .88h-72.617a.44.44 0 1 1 0-.88h72.617Zm-248.254 317.12a.44.44 0 0 1 0 .88h-72.616a.44.44 0 0 1 0-.88h72.616Zm299.701.444a.44.44 0 0 1 0 .88h-35.052a.44.44 0 0 1 0-.88h35.052ZM136.618.632a.44.44 0 0 1 0 .88h-35.052a.44.44 0 1 1 0-.88h35.052Z" fill="#32C5FF"/><linearGradient id="a" x1="150.428" y1="154.453" x2="150.428" y2="318.191" gradientUnits="userSpaceOnUse"><stop stop-color="#32C5FF"/><stop offset=".485" stop-color="#FFF9F9"/><stop offset="1" stop-color="#32C5FF"/></linearGradient></svg>