<svg width="618" height="306" fill="none" xmlns="http://www.w3.org/2000/svg"><rect x="1.181" y=".5" width="614.372" height="304.574" rx="19.5" fill="#32C5FF" fill-opacity=".1"/><rect x="1.181" y=".5" width="614.372" height="304.574" rx="19.5" stroke="url(#a)" stroke-linejoin="round"/><rect x="1.181" y=".5" width="614.372" height="304.574" rx="19.5" stroke="#fff" stroke-linejoin="round" style="mix-blend-mode:soft-light"/><rect x=".681" y="103.281" width="1.628" height="48.653" rx=".814" fill="#32C5FF"/><rect x="616.053" y="68.285" width="1.628" height="48.653" rx=".814" fill="#32C5FF"/><rect x="2.309" y="248.386" width="1.628" height="19.632" rx=".814" fill="#32C5FF"/><rect x="616.053" y="198.879" width="1.628" height="19.632" rx=".814" fill="#32C5FF"/><path fill-rule="evenodd" clip-rule="evenodd" d="M439.81.004a.423.423 0 1 1 0 .845h-72.413a.423.423 0 1 1 0-.845h72.413ZM192.359 304.725a.422.422 0 0 1 0 .845h-72.414a.422.422 0 0 1 0-.845h72.414Zm298.732.427a.423.423 0 1 1 0 .845h-34.97a.423.423 0 1 1 0-.845h34.97ZM136.194.431a.423.423 0 1 1 0 .845h-34.97a.423.423 0 0 1 0-.845h34.97Z" fill="#32C5FF"/><linearGradient id="a" x1="149.944" y1="148.238" x2="149.944" y2="305.574" gradientUnits="userSpaceOnUse"><stop stop-color="#32C5FF"/><stop offset=".485" stop-color="#FFF9F9"/><stop offset="1" stop-color="#32C5FF"/></linearGradient></svg>