<svg width="621" height="241" fill="none" xmlns="http://www.w3.org/2000/svg"><rect x="2.181" y="1.317" width="617" height="239" rx="19.5" fill="#32C5FF" fill-opacity=".1"/><rect x="2.181" y="1.317" width="617" height="239" rx="19.5" stroke="url(#a)" stroke-linejoin="round"/><rect x="2.181" y="1.317" width="617" height="239" rx="19.5" stroke="#fff" stroke-linejoin="round" style="mix-blend-mode:soft-light"/><rect x=".681" y="83.894" width="2" height="40" rx="1" fill="#32C5FF"/><rect x="618.681" y="56.202" width="2" height="40" rx="1" fill="#32C5FF"/><rect x="1.681" y="200.817" width="2" height="16.41" rx="1" fill="#32C5FF"/><rect x="618.681" y="162.868" width="2" height="16.41" rx="1" fill="#32C5FF"/><path fill-rule="evenodd" clip-rule="evenodd" d="M442.338.986a.343.343 0 1 1 0 .687h-74.313a.344.344 0 1 1 0-.687h74.313Zm-248 238.975a.342.342 0 1 1 0 .686h-74.313a.343.343 0 1 1 0-.686h74.313Zm300 0a.342.342 0 1 1 0 .686h-36.313a.343.343 0 1 1 0-.686h36.313ZM137.338.986a.343.343 0 1 1 0 .687h-36.313a.344.344 0 1 1 0-.687h36.313Z" fill="#32C5FF"/><linearGradient id="a" x1="151.582" y1="117.244" x2="151.582" y2="240.817" gradientUnits="userSpaceOnUse"><stop stop-color="#32C5FF"/><stop offset=".485" stop-color="#FFF9F9"/><stop offset="1" stop-color="#32C5FF"/></linearGradient></svg>