<svg width="621" height="230" fill="none" xmlns="http://www.w3.org/2000/svg"><rect x="2.181" y=".5" width="617" height="229" rx="19.5" fill="#32C5FF" fill-opacity=".1"/><rect x="2.181" y=".5" width="617" height="229" rx="19.5" stroke="url(#a)" stroke-linejoin="round"/><rect x="2.181" y=".5" width="617" height="229" rx="19.5" stroke="#fff" stroke-linejoin="round" style="mix-blend-mode:soft-light"/><rect x=".681" y="80.044" width="2" height="38.502" rx="1" fill="#32C5FF"/><rect x="618.681" y="52.687" width="2" height="38.502" rx="1" fill="#32C5FF"/><rect x="1.681" y="191.498" width="2" height="16.212" rx="1" fill="#32C5FF"/><rect x="618.681" y="155.022" width="2" height="16.212" rx="1" fill="#32C5FF"/><path fill-rule="evenodd" clip-rule="evenodd" d="M442.352.177a.329.329 0 1 1 0 .659H368.01a.33.33 0 0 1 0-.659h74.342Zm-248 228.987a.33.33 0 0 1 0 .659H120.01a.33.33 0 0 1 0-.659h74.342Zm300 0a.33.33 0 0 1 0 .659H458.01a.33.33 0 0 1 0-.659h36.342ZM137.352.177a.329.329 0 1 1 0 .659H101.01a.33.33 0 0 1 0-.659h36.342Z" fill="#32C5FF"/><linearGradient id="a" x1="151.582" y1="111.576" x2="151.582" y2="230" gradientUnits="userSpaceOnUse"><stop stop-color="#32C5FF"/><stop offset=".485" stop-color="#FFF9F9"/><stop offset="1" stop-color="#32C5FF"/></linearGradient></svg>