<svg width="618" height="360" fill="none" xmlns="http://www.w3.org/2000/svg"><rect x=".655" y=".5" width="614.372" height="358.499" rx="19.5" fill="#32C5FF" fill-opacity=".1"/><rect x=".655" y=".5" width="614.372" height="358.499" rx="19.5" stroke="url(#a)" stroke-linejoin="round"/><rect x=".655" y=".5" width="614.372" height="358.499" rx="19.5" stroke="#fff" stroke-linejoin="round" style="mix-blend-mode:soft-light"/><rect x=".155" y="121.507" width="1.628" height="57.239" rx=".814" fill="#32C5FF"/><rect x="615.527" y="80.335" width="1.628" height="57.239" rx=".814" fill="#32C5FF"/><rect x="1.783" y="292.219" width="1.628" height="23.096" rx=".814" fill="#32C5FF"/><rect x="615.527" y="233.976" width="1.628" height="23.096" rx=".814" fill="#32C5FF"/><path fill-rule="evenodd" clip-rule="evenodd" d="M439.209.005a.497.497 0 1 1 0 .994h-72.264a.497.497 0 1 1 0-.994h72.264ZM191.758 358.5a.498.498 0 0 1 0 .994h-72.264a.497.497 0 1 1 0-.994h72.264Zm298.732.502a.497.497 0 1 1 0 .994h-34.821a.497.497 0 1 1 0-.994h34.821ZM135.593.507a.497.497 0 1 1 0 .994h-34.821a.497.497 0 1 1 0-.994h34.821Z" fill="#32C5FF"/><defs><linearGradient id="a" x1="149.418" y1="174.398" x2="149.418" y2="359.499" gradientUnits="userSpaceOnUse"><stop stop-color="#32C5FF"/><stop offset=".485" stop-color="#FFF9F9"/><stop offset="1" stop-color="#32C5FF"/></linearGradient></defs></svg>