<svg width="1924" height="49" fill="none" xmlns="http://www.w3.org/2000/svg"><path opacity=".827" d="M2 2h638.039l41.718 38.598L684.145 42h21.953l6.855 5h490.337l6.89-5h22.31l43.81-40H1922" stroke="url(#a)" stroke-width="3" stroke-linecap="square"/><path fill-rule="evenodd" clip-rule="evenodd" d="M1291.64 12.838h-12L1268 25h12.64l11-12.162Zm238 0h-12L1506 25h12.64l11-12.162Zm-228 0h12l-11 12.162H1290l11.64-12.162Zm36 0h-12L1314 25h12.64l11-12.162Zm12 0h12l-11 12.162H1338l11.64-12.162Zm36 0h-12L1362 25h12.64l11-12.162Zm12 0h12l-11 12.162H1386l11.64-12.162Zm36 0h-12L1410 25h12.64l11-12.162Zm12 0h12l-11 12.162H1434l11.64-12.162Zm36 0h-12L1458 25h12.64l11-12.162Zm12 0h12l-11 12.162H1482l11.64-12.162Zm60 0h-12L1530 25h12.64l11-12.162Z" fill="url(#b)"/><path fill-rule="evenodd" clip-rule="evenodd" d="M622 12.838h12L645.637 25H633l-11-12.162Zm-238 0h12L407.637 25H395l-11-12.162Zm228 0h-12L611 25h12.637L612 12.838Zm-36 0h12L599.637 25H587l-11-12.162Zm-12 0h-12L563 25h12.637L564 12.838Zm-36 0h12L551.637 25H539l-11-12.162Zm-12 0h-12L515 25h12.637L516 12.838Zm-36 0h12L503.637 25H491l-11-12.162Zm-12 0h-12L467 25h12.637L468 12.838Zm-36 0h12L455.637 25H443l-11-12.162Zm-12 0h-12L419 25h12.637L420 12.838Zm-60 0h12L383.637 25H371l-11-12.162Z" fill="url(#c)"/><path fill-rule="evenodd" clip-rule="evenodd" d="M713 40h492.06l-5.51 4H718.547L713 40Z" fill="#2CECF6"/><linearGradient id="a" x1="2" y1="46.551" x2="1883.72" y2="46.551" gradientUnits="userSpaceOnUse"><stop stop-color="#1786EF" stop-opacity=".01"/><stop offset=".507" stop-color="#1AD6C2"/><stop offset="1" stop-color="#2CECF6" stop-opacity=".01"/></linearGradient><linearGradient id="b" x1="1268" y1="25" x2="1553.64" y2="25" gradientUnits="userSpaceOnUse"><stop stop-color="#2CECF6"/><stop offset="1" stop-color="#21C0C7" stop-opacity=".01"/></linearGradient><linearGradient id="c" x1="645.637" y1="25" x2="360" y2="25" gradientUnits="userSpaceOnUse"><stop stop-color="#2CECF6"/><stop offset="1" stop-color="#21C0C7" stop-opacity=".01"/></linearGradient></svg>